<svg width="107" height="107" viewBox="0 0 107 107" fill="none" xmlns="http://www.w3.org/2000/svg">
<g filter="url(#filter0_d_416_634)">
<circle cx="53.5" cy="53.5" r="43.5" fill="#F8F8F8"/>
</g>
<g clip-path="url(#clip0_416_634)">
<path d="M67.25 36H38.75C37.7554 36 36.8016 36.3951 36.0983 37.0983C35.3951 37.8016 35 38.7554 35 39.75V68.25C35 68.7425 35.097 69.2301 35.2855 69.6851C35.4739 70.14 35.7501 70.5534 36.0983 70.9016C36.4466 71.2499 36.86 71.5261 37.3149 71.7145C37.7699 71.903 38.2575 72 38.75 72H47.75V70.5H38.75C38.1533 70.5 37.581 70.2629 37.159 69.841C36.7371 69.419 36.5 68.8467 36.5 68.25V42.75H69.5V49.5H71V39.75C71 39.2575 70.903 38.7699 70.7145 38.3149C70.5261 37.86 70.2499 37.4466 69.9016 37.0983C69.5534 36.7501 69.14 36.4739 68.6851 36.2855C68.2301 36.097 67.7425 36 67.25 36ZM69.5 41.25H36.5V39.75C36.5 39.1533 36.7371 38.581 37.159 38.159C37.581 37.7371 38.1533 37.5 38.75 37.5H67.25C67.8467 37.5 68.419 37.7371 68.841 38.159C69.2629 38.581 69.5 39.1533 69.5 39.75V41.25Z" fill="#111111"/>
<path d="M65.5325 48.2175C65.4624 48.148 65.3793 48.093 65.2879 48.0557C65.1966 48.0184 65.0987 47.9994 65 48H52.25C51.6533 48 51.081 48.2371 50.659 48.659C50.2371 49.081 50 49.6533 50 50.25V69.75C50 70.3468 50.2371 70.919 50.659 71.341C51.081 71.763 51.6533 72 52.25 72H68.75C69.3467 72 69.919 71.763 70.341 71.341C70.7629 70.919 71 70.3468 71 69.75V54C71.0006 53.9013 70.9817 53.8035 70.9443 53.7121C70.907 53.6207 70.852 53.5376 70.7825 53.4675L65.5325 48.2175ZM65.75 50.5575L68.4425 53.25H66.5C66.3011 53.25 66.1103 53.171 65.9697 53.0303C65.829 52.8897 65.75 52.6989 65.75 52.5V50.5575ZM69.5 69.75C69.5 69.9489 69.421 70.1397 69.2803 70.2803C69.1397 70.421 68.9489 70.5 68.75 70.5H52.25C52.0511 70.5 51.8603 70.421 51.7197 70.2803C51.579 70.1397 51.5 69.9489 51.5 69.75V50.25C51.5 50.0511 51.579 49.8603 51.7197 49.7197C51.8603 49.579 52.0511 49.5 52.25 49.5H64.25V52.5C64.25 53.0967 64.4871 53.669 64.909 54.091C65.331 54.513 65.9033 54.75 66.5 54.75H69.5V69.75Z" fill="#111111"/>
<path d="M62 57H54.5V58.5H62V57Z" fill="#111111"/>
<path d="M66.5 61.5H54.5V63H66.5V61.5Z" fill="#111111"/>
<path d="M66.5 66H54.5V67.5H66.5V66Z" fill="#111111"/>
</g>
<defs>
<filter id="filter0_d_416_634" x="0" y="0" width="107" height="107" filterUnits="userSpaceOnUse" color-interpolation-filters="sRGB">
<feFlood flood-opacity="0" result="BackgroundImageFix"/>
<feColorMatrix in="SourceAlpha" type="matrix" values="0 0 0 0 0 0 0 0 0 0 0 0 0 0 0 0 0 0 127 0" result="hardAlpha"/>
<feOffset/>
<feGaussianBlur stdDeviation="5"/>
<feComposite in2="hardAlpha" operator="out"/>
<feColorMatrix type="matrix" values="0 0 0 0 0 0 0 0 0 0 0 0 0 0 0 0 0 0 0.15 0"/>
<feBlend mode="normal" in2="BackgroundImageFix" result="effect1_dropShadow_416_634"/>
<feBlend mode="normal" in="SourceGraphic" in2="effect1_dropShadow_416_634" result="shape"/>
</filter>
<clipPath id="clip0_416_634">
<rect width="36" height="36" fill="white" transform="translate(35 36)"/>
</clipPath>
</defs>
</svg>
