<svg width="184" height="152" viewBox="0 0 184 152" fill="none" xmlns="http://www.w3.org/2000/svg">
<path opacity="0.5" d="M57.9683 152C57.8893 152 57.8103 151.992 57.7314 151.977C57.2951 151.895 56.9303 151.59 56.7723 151.172L0.0824855 1.7347C-0.0942823 1.26431 0.018549 0.733704 0.368324 0.379971C0.721859 0.0224737 1.2484 -0.0941901 1.72229 0.0789137L183.161 67.0061C183.665 67.1905 184 67.6722 184 68.2103C184 68.7484 183.665 69.2263 183.161 69.4107C181.461 70.0354 141.346 84.7191 123.474 85.6336C123.199 85.6448 122.929 85.5733 122.699 85.4228C86.458 61.3426 49.9611 36.585 14.0171 11.7032C49.412 46.0229 104.048 98.6088 104.658 99.1959C105.154 99.6776 105.184 100.464 104.718 100.98L58.9123 151.586C58.6716 151.85 58.3294 152 57.9683 152ZM4.41894 5.94941L58.4234 148.308L101.991 100.174C94.1267 92.6066 36.6471 37.2624 4.41894 5.94941ZM10.1959 5.93433C47.7083 31.9563 85.8713 57.873 123.76 83.0521C138.492 82.1301 168.915 71.7476 178.972 68.1915L10.1959 5.93433Z" fill="white"/>
</svg>
