<svg width="100" height="100" viewBox="0 0 100 100" fill="none" xmlns="http://www.w3.org/2000/svg">
<g filter="url(#filter0_d_416_634)">
<circle cx="50" cy="50" r="40" fill="#F8F8F8"/>
</g>
<g clip-path="url(#clip0_416_634)">
<path d="M64.2035 33.9305C65.0697 33.2248 65.7312 34.8356 64.6216 34.9397C64.5057 34.9374 64.3931 34.9013 64.2974 34.836C64.2017 34.7706 64.1272 34.6788 64.0828 34.5717C64.0385 34.4647 64.0262 34.347 64.0477 34.2332C64.0691 34.1193 64.1233 34.0141 64.2035 33.9305ZM62.0602 34.3522C62.0519 34.2012 61.9861 34.0592 61.8764 33.9553C61.7666 33.8513 61.6212 33.7934 61.4701 33.7934C61.3189 33.7934 61.1735 33.8513 61.0638 33.9553C60.954 34.0592 60.8883 34.2012 60.88 34.3522C60.8883 34.5031 60.954 34.6452 61.0638 34.7491C61.1735 34.853 61.3189 34.9109 61.4701 34.9109C61.6212 34.9109 61.7666 34.853 61.8764 34.7491C61.9861 34.6452 62.0519 34.5031 62.0602 34.3522ZM57.9023 33.934C57.3501 34.4633 58.2074 35.3208 58.7367 34.7703C59.2659 34.2199 58.4474 33.3959 57.9023 33.9305V33.934ZM67.1266 44.1776C67.9927 44.8286 66.9502 45.8819 66.2904 45.0139L48.1858 63.1457C48.1149 63.2182 48.026 63.2706 47.9282 63.2974L41.0289 65.2505C40.9278 65.2798 40.8206 65.2815 40.7186 65.2553C40.6165 65.2291 40.5234 65.1761 40.4488 65.1017C40.3742 65.0273 40.321 64.9342 40.2946 64.8323C40.2681 64.7303 40.2695 64.6231 40.2986 64.5218L42.2391 57.6163C42.2664 57.5191 42.318 57.4305 42.389 57.3587L60.5025 39.2199C60.422 39.1728 60.3533 39.1079 60.3018 39.0301C60.2503 38.9523 60.2174 38.8638 60.2054 38.7713C60.1934 38.6787 60.2028 38.5847 60.2329 38.4964C60.2629 38.4081 60.3128 38.3278 60.3787 38.2618C60.4446 38.1958 60.5247 38.1457 60.6129 38.1155C60.7012 38.0853 60.7952 38.0757 60.8877 38.0874C60.9802 38.0992 61.0688 38.132 61.1467 38.1834C61.2246 38.2347 61.2896 38.3032 61.3369 38.3836L62.5717 37.1486C62.9765 36.7467 63.5238 36.5212 64.0941 36.5212C64.6645 36.5212 65.2117 36.7467 65.6165 37.1486L68.3632 39.8921C68.5641 40.0914 68.7234 40.3286 68.8318 40.59C68.9402 40.8514 68.9956 41.1317 68.9947 41.4147C69.0953 42.528 67.7916 43.4542 67.1266 44.1741V44.1776ZM43.6486 57.7734L45.2892 59.4142L62.9881 41.697L61.3457 40.0562L43.6486 57.7734ZM46.6475 62.4347L43.1194 58.906L41.7346 63.8285L46.6475 62.4347ZM65.4578 44.1758L63.8154 42.5315L46.1236 60.2487L47.7677 61.893L65.4578 44.1758ZM67.5305 40.7249L64.7821 37.9814C63.7978 37.0286 62.8311 38.6712 62.1713 39.2164L66.2904 43.336L67.5252 42.101C67.7071 41.9184 67.8095 41.6714 67.8102 41.4137C67.8109 41.1559 67.7115 40.9084 67.5305 40.7249ZM68.9947 31.591V37.1063C68.9865 37.2572 68.9207 37.3992 68.8109 37.5032C68.7012 37.6071 68.5558 37.665 68.4046 37.665C68.2535 37.665 68.1081 37.6071 67.9983 37.5032C67.8886 37.3992 67.8228 37.2572 67.8146 37.1063V32.1821H31.1819V36.5152H58.9501C59.1068 36.5152 59.2572 36.5775 59.368 36.6883C59.4788 36.7992 59.5411 36.9495 59.5411 37.1063C59.5411 37.263 59.4788 37.4134 59.368 37.5242C59.2572 37.635 59.1068 37.6973 58.9501 37.6973H31.1819V68.8179H59.9362V61.5225C59.936 61.4448 59.9511 61.3679 59.9807 61.296C60.0104 61.2242 60.0539 61.159 60.1088 61.1041C60.1637 61.0491 60.229 61.0056 60.3008 60.976C60.3726 60.9464 60.4495 60.9312 60.5272 60.9315H67.8146V46.5612C67.8146 46.4044 67.8768 46.2541 67.9876 46.1433C68.0985 46.0324 68.2488 45.9701 68.4055 45.9701C68.5622 45.9701 68.7126 46.0324 68.8234 46.1433C68.9342 46.2541 68.9965 46.4044 68.9965 46.5612V61.5225C68.9962 61.6004 68.9804 61.6775 68.9501 61.7492C68.9199 61.821 68.8756 61.8861 68.8201 61.9406L60.9417 69.82C60.8874 69.8754 60.8226 69.9195 60.7512 69.9498C60.6797 69.9801 60.603 69.9959 60.5254 69.9965H30.591C30.4348 69.9965 30.2851 69.9347 30.1743 69.8246C30.0636 69.7145 30.0009 69.5651 30 69.409V31.591C30 31.4343 30.0623 31.284 30.1731 31.1731C30.2839 31.0623 30.4342 31 30.591 31H68.4037C68.5605 31 68.7108 31.0623 68.8216 31.1731C68.9324 31.284 68.9947 31.4343 68.9947 31.591ZM61.1164 67.9816L66.9784 62.1206H61.1164V67.9816ZM47.3161 49.9081C47.4728 49.9081 47.6231 49.8458 47.734 49.735C47.8448 49.6241 47.907 49.4738 47.907 49.317C47.907 49.1603 47.8448 49.0099 47.734 48.8991C47.6231 48.7883 47.4728 48.726 47.3161 48.726H35.9079V42.4239H54.7834C54.9401 42.4239 55.0904 42.3616 55.2013 42.2508C55.3121 42.1399 55.3743 41.9896 55.3743 41.8328C55.3743 41.6761 55.3121 41.5258 55.2013 41.4149C55.0904 41.3041 54.9401 41.2418 54.7834 41.2418H35.3187C35.2409 41.2418 35.1639 41.2571 35.0921 41.287C35.0203 41.3168 34.9551 41.3605 34.9002 41.4155C34.8453 41.4706 34.8018 41.536 34.7722 41.6079C34.7426 41.6798 34.7275 41.7568 34.7277 41.8346V64.6824C34.7277 64.8391 34.79 64.9895 34.9008 65.1003C35.0116 65.2112 35.1619 65.2734 35.3187 65.2734H38.5046C38.6613 65.2734 38.8116 65.2112 38.9224 65.1003C39.0333 64.9895 39.0955 64.8391 39.0955 64.6824C39.0955 64.5256 39.0333 64.3753 38.9224 64.2644C38.8116 64.1536 38.6613 64.0913 38.5046 64.0913H35.9079V49.9081H47.3161Z" fill="#111111"/>
</g>
<defs>
<filter id="filter0_d_416_634" x="0" y="0" width="100" height="100" filterUnits="userSpaceOnUse" color-interpolation-filters="sRGB">
<feFlood flood-opacity="0" result="BackgroundImageFix"/>
<feColorMatrix in="SourceAlpha" type="matrix" values="0 0 0 0 0 0 0 0 0 0 0 0 0 0 0 0 0 0 127 0" result="hardAlpha"/>
<feOffset/>
<feGaussianBlur stdDeviation="5"/>
<feComposite in2="hardAlpha" operator="out"/>
<feColorMatrix type="matrix" values="0 0 0 0 0 0 0 0 0 0 0 0 0 0 0 0 0 0 0.15 0"/>
<feBlend mode="normal" in2="BackgroundImageFix" result="effect1_dropShadow_416_634"/>
<feBlend mode="normal" in="SourceGraphic" in2="effect1_dropShadow_416_634" result="shape"/>
</filter>
<clipPath id="clip0_416_634">
<rect width="39" height="39" fill="white" transform="translate(30 31)"/>
</clipPath>
</defs>
</svg>
