<svg width="34" height="27" viewBox="0 0 34 27" fill="none" xmlns="http://www.w3.org/2000/svg">
<rect width="34" height="27" fill="#E4E4E4"/>
<g clip-path="url(#clip0_416_634)">
<rect width="1920" height="6614" transform="translate(-1719 -31)" fill="#F8F8F8"/>
<rect x="-1719" y="-31" width="1920" height="89" fill="white"/>
<rect x="-138" y="-14" width="199" height="55" rx="27.5" fill="#111111"/>
<path d="M0.944824 9.43668L33.189 1.20459L21.2079 25.7725L15.2758 18.0649L11.3326 20.4977L10.6254 13.42L0.944824 9.43668Z" fill="white"/>
<path d="M12.9091 17.3364C12.8767 17.3364 12.8498 17.3118 12.847 17.2788L12.4838 12.4644C12.4811 12.4298 12.5069 12.4002 12.5414 12.3974C12.5782 12.3947 12.6056 12.4205 12.6084 12.455L12.9716 17.2695C12.9743 17.3041 12.9486 17.3337 12.914 17.3364C12.9123 17.3364 12.9107 17.3364 12.9091 17.3364Z" fill="black"/>
<path d="M14.4332 15.7108C14.4003 15.7108 14.3728 15.685 14.3712 15.6515C14.3059 14.3161 14.194 12.9658 14.0376 11.6386C14.0332 11.6046 14.0579 11.5733 14.0919 11.5695C14.1249 11.5657 14.1572 11.5898 14.1611 11.6238C14.318 12.9543 14.4304 14.3073 14.4957 15.6455C14.4974 15.6801 14.4711 15.7091 14.4365 15.7108C14.4348 15.7108 14.4343 15.7108 14.4332 15.7108Z" fill="black"/>
<path d="M15.97 14.6309C15.9475 14.6309 15.9261 14.6188 15.9146 14.5974C15.9113 14.5909 15.9064 14.5755 15.9053 14.5684C15.7484 13.3383 15.6332 12.0884 15.5624 10.8523C15.5602 10.8177 15.5865 10.7886 15.6211 10.7865C15.6578 10.7848 15.6847 10.8106 15.6869 10.8452C15.7572 12.0763 15.8724 13.3218 16.0282 14.547C16.0392 14.576 16.0265 14.609 15.9986 14.6238C15.9892 14.6287 15.9794 14.6309 15.97 14.6309Z" fill="black"/>
<path d="M17.4333 13.2998C17.4037 13.2998 17.3768 13.2779 17.3719 13.2477C17.1936 12.1493 17.0712 11.0289 17.0087 9.9179C17.0065 9.88334 17.0328 9.85425 17.0674 9.85206C17.1047 9.85151 17.131 9.87621 17.1332 9.91077C17.1958 11.0174 17.3176 12.1334 17.4948 13.2274C17.5003 13.2614 17.4772 13.2933 17.4432 13.2987C17.4399 13.2998 17.4366 13.2998 17.4333 13.2998Z" fill="black"/>
<path d="M18.9289 12.0527C18.8971 12.0527 18.8702 12.0285 18.8669 11.9961C18.778 11.0492 18.715 10.0863 18.6787 9.13433C18.6776 9.09977 18.7045 9.07124 18.7386 9.0696C18.7753 9.0663 18.8016 9.09483 18.8033 9.1294C18.8389 10.0786 18.902 11.0393 18.9909 11.9841C18.9942 12.0181 18.969 12.0488 18.935 12.0521C18.9328 12.0527 18.9306 12.0527 18.9289 12.0527Z" fill="black"/>
<path d="M20.7071 11.0306C20.6736 11.0306 20.6457 11.0037 20.6446 10.9697L20.5689 7.91423C20.5678 7.87966 20.5952 7.85113 20.6298 7.85059H20.6314C20.6649 7.85059 20.6929 7.87747 20.6934 7.91148L20.7691 10.967C20.7702 11.0015 20.7428 11.0301 20.7082 11.0306H20.7071Z" fill="black"/>
<path d="M22.0881 9.83013C22.053 9.83013 22.0256 9.8016 22.0261 9.76759L22.0459 7.43798C22.0459 7.40396 22.0739 7.37598 22.1079 7.37598C22.1424 7.37653 22.1704 7.40451 22.1704 7.43908L22.1507 9.76868C22.1501 9.8027 22.1221 9.83013 22.0881 9.83013Z" fill="black"/>
<path d="M23.6277 8.88547C23.6271 8.88547 23.6271 8.88547 23.6277 8.88547C23.5926 8.88492 23.5651 8.85694 23.5657 8.82237L23.5854 6.42693C23.5854 6.39291 23.6134 6.36548 23.6474 6.36548H23.648C23.6826 6.36603 23.71 6.39401 23.71 6.42802L23.6902 8.82347C23.6897 8.85804 23.6617 8.88547 23.6277 8.88547Z" fill="black"/>
<path d="M25.2028 7.69865C25.1688 7.69865 25.1414 7.67177 25.1408 7.63776L25.0969 5.65984C25.0964 5.62528 25.1232 5.59674 25.1578 5.59619H25.1589C25.1929 5.59619 25.2204 5.62308 25.2209 5.6571L25.2648 7.63501C25.2654 7.66958 25.2385 7.69811 25.2039 7.69865H25.2028Z" fill="black"/>
<path d="M26.6359 6.46746C26.603 6.46746 26.5755 6.44166 26.5739 6.40874C26.5459 5.86777 26.5443 5.31856 26.57 4.77649C26.5717 4.74192 26.603 4.71449 26.6353 4.71723C26.6699 4.71888 26.6962 4.74796 26.6946 4.78252C26.6694 5.32076 26.6705 5.86557 26.6984 6.40271C26.7001 6.43727 26.6738 6.46635 26.6397 6.468C26.6381 6.46745 26.637 6.46746 26.6359 6.46746Z" fill="black"/>
<path d="M28.1282 5.28065C28.0948 5.28065 28.0674 5.25431 28.0657 5.22085L28.0213 3.94631C28.0202 3.91175 28.047 3.88321 28.081 3.88212C28.1162 3.87718 28.1441 3.9079 28.1452 3.94192L28.1897 5.217C28.1908 5.25157 28.1639 5.2801 28.1299 5.2812L28.1282 5.28065Z" fill="black"/>
<path d="M11.8315 19.0586C11.7986 19.0586 11.7706 19.0328 11.7695 18.9993C11.6806 17.0691 11.5242 15.117 11.3053 13.1973C11.3015 13.1632 11.3262 13.1325 11.3602 13.1287C11.3942 13.1243 11.4249 13.149 11.4293 13.1835C11.6488 15.1061 11.8052 17.0609 11.894 18.9939C11.8957 19.0284 11.8694 19.0575 11.8348 19.0586C11.8337 19.0586 11.8326 19.0586 11.8315 19.0586Z" fill="black"/>
<path d="M21.1751 26.1791C21.1164 26.1791 21.061 26.1517 21.0253 26.1039L13.8104 16.4525C13.7501 16.3713 13.7649 16.2572 13.8439 16.1941C13.9613 16.1013 24.658 7.64375 31.3269 2.32724C24.5559 6.07842 17.6818 9.79889 10.8641 13.4014C10.8284 13.42 10.7879 13.4272 10.7478 13.4206C7.65337 12.9345 0.891141 9.64525 0.60474 9.50535C0.534512 9.47078 0.4928 9.39616 0.501029 9.3188C0.509259 9.24089 0.56469 9.17615 0.640405 9.15695L33.267 0.826654C33.3372 0.808548 33.4118 0.833241 33.4579 0.889753C33.504 0.946265 33.5128 1.02417 33.4815 1.08946L21.3424 26.0743C21.3139 26.133 21.2568 26.1725 21.1921 26.1786C21.1866 26.1791 21.1806 26.1791 21.1751 26.1791ZM14.2181 16.3751L21.1405 25.6354L32.8061 1.62495C26.7072 6.49705 15.6045 15.2783 14.2181 16.3751ZM1.23186 9.39178C2.82736 10.1489 8.14169 12.6075 10.7456 13.042C17.82 9.30345 24.9548 5.43813 31.9722 1.54265L1.23186 9.39178Z" fill="black"/>
<path d="M11.0303 20.7738C11.0144 20.7738 10.998 20.7716 10.9815 20.7672C10.9047 20.7463 10.8492 20.6788 10.8438 20.5993L10.3791 13.5688C10.3725 13.4656 10.4504 13.3767 10.553 13.3701C10.6517 13.3625 10.745 13.4409 10.7516 13.5441L11.1801 20.0298L13.7231 16.255C13.7807 16.1694 13.8971 16.1469 13.9821 16.2045C14.0677 16.2621 14.0902 16.3779 14.0326 16.4635L11.1845 20.6915C11.1499 20.7441 11.0912 20.7738 11.0303 20.7738Z" fill="black"/>
<path d="M11.2471 20.7736C11.1851 20.7736 11.1248 20.7429 11.0891 20.6864C11.0342 20.5991 11.06 20.4839 11.1473 20.429L15.1475 17.9058C15.2342 17.8509 15.35 17.8767 15.4048 17.9639C15.4597 18.0511 15.4339 18.1664 15.3467 18.2212L11.3464 20.7445C11.3157 20.7643 11.2817 20.7736 11.2471 20.7736Z" fill="black"/>
</g>
<defs>
<clipPath id="clip0_416_634">
<rect width="1920" height="6614" fill="white" transform="translate(-1719 -31)"/>
</clipPath>
</defs>
</svg>
