<svg width="129" height="19" viewBox="0 0 129 19" fill="none" xmlns="http://www.w3.org/2000/svg">
<path d="M124.194 5.47763C124.123 4.76148 123.819 4.20514 123.28 3.80859C122.741 3.41205 122.01 3.21378 121.087 3.21378C120.46 3.21378 119.93 3.30256 119.498 3.48011C119.066 3.65175 118.734 3.89145 118.504 4.19922C118.279 4.50698 118.166 4.85618 118.166 5.2468C118.154 5.57233 118.223 5.85642 118.37 6.09908C118.524 6.34174 118.734 6.55185 119.001 6.7294C119.267 6.90104 119.575 7.05196 119.924 7.18217C120.273 7.30646 120.646 7.413 121.043 7.50178L122.676 7.8924C123.469 8.06996 124.197 8.3067 124.86 8.60263C125.523 8.89856 126.097 9.26255 126.582 9.6946C127.068 10.1267 127.444 10.6357 127.71 11.2216C127.982 11.8075 128.121 12.4793 128.127 13.2369C128.121 14.3496 127.837 15.3143 127.275 16.131C126.719 16.9419 125.914 17.5722 124.86 18.022C123.813 18.4659 122.549 18.6879 121.069 18.6879C119.602 18.6879 118.323 18.4629 117.234 18.0131C116.151 17.5633 115.305 16.8975 114.695 16.0156C114.091 15.1278 113.775 14.0299 113.745 12.7219H117.465C117.506 13.3316 117.681 13.8406 117.989 14.2489C118.302 14.6514 118.72 14.9562 119.241 15.1634C119.767 15.3646 120.362 15.4652 121.025 15.4652C121.676 15.4652 122.241 15.3705 122.721 15.1811C123.206 14.9917 123.582 14.7283 123.848 14.391C124.114 14.0536 124.248 13.666 124.248 13.228C124.248 12.8196 124.126 12.4763 123.884 12.1982C123.647 11.92 123.298 11.6832 122.836 11.4879C122.38 11.2926 121.821 11.1151 121.158 10.9553L119.178 10.4581C117.645 10.0852 116.435 9.50225 115.547 8.70916C114.66 7.91607 114.219 6.84777 114.225 5.50426C114.219 4.40341 114.512 3.44164 115.103 2.61896C115.701 1.79628 116.521 1.15412 117.563 0.692472C118.604 0.230824 119.788 0 121.114 0C122.463 0 123.641 0.230824 124.647 0.692472C125.659 1.15412 126.446 1.79628 127.009 2.61896C127.571 3.44164 127.861 4.39453 127.879 5.47763H124.194Z" fill="#111111"/>
<path d="M97.8027 18.4304V0.248535H105.083C106.42 0.248535 107.536 0.446807 108.43 0.843351C109.323 1.23989 109.995 1.79032 110.445 2.49463C110.895 3.19302 111.119 3.99794 111.119 4.9094C111.119 5.61963 110.977 6.24404 110.693 6.78263C110.409 7.3153 110.019 7.75327 109.521 8.09655C109.03 8.4339 108.468 8.67361 107.835 8.81565V8.99321C108.527 9.0228 109.175 9.21811 109.779 9.57915C110.389 9.94018 110.883 10.4462 111.262 11.0973C111.64 11.7424 111.83 12.5118 111.83 13.4055C111.83 14.3702 111.59 15.2314 111.111 15.9889C110.637 16.7406 109.936 17.3354 109.007 17.7734C108.077 18.2114 106.932 18.4304 105.571 18.4304H97.8027ZM101.647 15.2876H104.781C105.852 15.2876 106.633 15.0834 107.124 14.675C107.616 14.2607 107.861 13.7103 107.861 13.0237C107.861 12.5207 107.74 12.0768 107.497 11.6921C107.255 11.3074 106.908 11.0055 106.459 10.7865C106.015 10.5675 105.485 10.4581 104.869 10.4581H101.647V15.2876ZM101.647 7.85685H104.497C105.023 7.85685 105.491 7.76511 105.899 7.58163C106.314 7.39224 106.639 7.1259 106.876 6.78263C107.119 6.43935 107.24 6.02801 107.24 5.54861C107.24 4.89165 107.006 4.36194 106.539 3.95947C106.077 3.55701 105.42 3.35578 104.568 3.35578H101.647V7.85685Z" fill="#111111"/>
<path d="M94.9552 9.33949C94.9552 11.3222 94.5794 13.009 93.8277 14.3999C93.082 15.7907 92.064 16.8531 90.7737 17.587C89.4894 18.315 88.0453 18.679 86.4413 18.679C84.8256 18.679 83.3755 18.312 82.0912 17.5781C80.8069 16.8442 79.7918 15.7818 79.0461 14.391C78.3004 13.0001 77.9275 11.3163 77.9275 9.33949C77.9275 7.35677 78.3004 5.66998 79.0461 4.27912C79.7918 2.88826 80.8069 1.82884 82.0912 1.10085C83.3755 0.366951 84.8256 0 86.4413 0C88.0453 0 89.4894 0.366951 90.7737 1.10085C92.064 1.82884 93.082 2.88826 93.8277 4.27912C94.5794 5.66998 94.9552 7.35677 94.9552 9.33949ZM91.0578 9.33949C91.0578 8.05516 90.8655 6.97206 90.4808 6.0902C90.102 5.20833 89.5663 4.53954 88.8739 4.08381C88.1814 3.62808 87.3706 3.40021 86.4413 3.40021C85.5121 3.40021 84.7013 3.62808 84.0088 4.08381C83.3163 4.53954 82.7778 5.20833 82.393 6.0902C82.0143 6.97206 81.8249 8.05516 81.8249 9.33949C81.8249 10.6238 82.0143 11.7069 82.393 12.5888C82.7778 13.4706 83.3163 14.1394 84.0088 14.5952C84.7013 15.0509 85.5121 15.2788 86.4413 15.2788C87.3706 15.2788 88.1814 15.0509 88.8739 14.5952C89.5663 14.1394 90.102 13.4706 90.4808 12.5888C90.8655 11.7069 91.0578 10.6238 91.0578 9.33949Z" fill="#111111"/>
<path d="M71.2691 0.248535H75.0688V12.9261C75.0688 14.098 74.8055 15.116 74.2787 15.9801C73.7579 16.8442 73.0329 17.51 72.1036 17.9776C71.1744 18.4452 70.0943 18.6789 68.8632 18.6789C67.7683 18.6789 66.774 18.4866 65.8803 18.1019C64.9925 17.7113 64.2882 17.1194 63.7673 16.3263C63.2465 15.5273 62.9891 14.5241 62.995 13.3167H66.8213C66.8332 13.7961 66.9308 14.2075 67.1143 14.5507C67.3037 14.8881 67.5611 15.1485 67.8867 15.332C68.2181 15.5095 68.6087 15.5983 69.0585 15.5983C69.532 15.5983 69.9315 15.4977 70.2571 15.2965C70.5885 15.0893 70.84 14.7875 71.0117 14.3909C71.1833 13.9944 71.2691 13.5061 71.2691 12.9261V0.248535Z" fill="#111111"/>
<path d="M46.46 18.4304H40.0146V0.248535H46.5132C48.3421 0.248535 49.9164 0.612527 51.2362 1.34051C52.5561 2.06257 53.5711 3.10128 54.2813 4.45663C54.9975 5.81198 55.3556 7.43367 55.3556 9.32169C55.3556 11.2156 54.9975 12.8432 54.2813 14.2045C53.5711 15.5658 52.5502 16.6104 51.2185 17.3384C49.8927 18.0664 48.3066 18.4304 46.46 18.4304ZM43.8588 15.1367H46.3002C47.4365 15.1367 48.3924 14.9354 49.1677 14.533C49.949 14.1246 50.5349 13.4943 50.9255 12.642C51.3221 11.7838 51.5203 10.677 51.5203 9.32169C51.5203 7.97818 51.3221 6.88028 50.9255 6.02801C50.5349 5.17574 49.9519 4.54837 49.1766 4.14591C48.4012 3.74345 47.4454 3.54222 46.309 3.54222H43.8588V15.1367Z" fill="#111111"/>
<path d="M36.8386 0.248535V18.4304H33.5183L25.6081 6.98682H25.475V18.4304H21.6309V0.248535H25.0044L32.8524 11.6832H33.0123V0.248535H36.8386Z" fill="#111111"/>
<path d="M18.4681 0.248535V18.4304H14.624V0.248535H18.4681Z" fill="#111111"/>
<path d="M0 18.4304V0.248535H12.0384V3.41792H3.84411V7.75031H11.2393V10.9197H3.84411V18.4304H0Z" fill="#111111"/>
</svg>
