<svg width="107" height="107" viewBox="0 0 107 107" fill="none" xmlns="http://www.w3.org/2000/svg">
<g filter="url(#filter0_d_416_634)">
<circle cx="53.5" cy="53.5" r="43.5" fill="#F8F8F8"/>
</g>
<path d="M71.3386 49.665C71.3386 50.4291 71.3386 51.1932 71.3386 51.9573C74.1238 51.9573 76.9091 51.9573 79.6943 51.9573C79.6943 51.1932 79.6943 50.4291 79.6943 49.665C76.9091 49.665 74.1238 49.665 71.3386 49.665Z" fill="#111111"/>
<path d="M72.3092 55.012C71.9636 55.6939 71.618 56.3759 71.2725 57.0579C73.7589 58.3124 76.2374 59.5827 78.7239 60.8372C79.0695 60.1552 79.4151 59.4733 79.7607 58.7913C77.2742 57.5368 74.7957 56.2665 72.3092 55.012Z" fill="#111111"/>
<path d="M78.7239 40.785C76.2374 42.0395 73.7589 43.3098 71.2725 44.5643C71.618 45.2463 71.9636 45.9283 72.3092 46.6103C74.7912 45.3453 77.2787 44.0912 79.7607 42.8262C79.4151 42.1458 79.0695 41.4654 78.7239 40.785Z" fill="#111111"/>
<path d="M59.5406 39.709C52.7557 41.9087 45.9693 44.1034 39.1841 46.302C39.0551 46.2811 38.9379 46.2259 38.8037 46.2259H33.7772C32.3922 46.2259 31.2394 47.3787 31.2394 48.7638V57.7424C31.2394 59.1275 32.3922 60.2803 33.7772 60.2803H34.5874L40.0659 75.6282H48.1539L43.2706 61.0546C48.6925 62.1791 54.1144 63.3039 59.5361 64.4294V64.4787C59.5361 66.9186 61.6075 68.8651 64.106 68.8651C66.6045 68.8651 68.6759 66.9186 68.6759 64.4787V39.7627C68.6759 37.3228 66.6045 35.3718 64.1153 35.3718C61.626 35.3718 59.5714 37.2948 59.5406 39.709ZM64.106 37.6635C65.4286 37.6635 66.3842 38.6092 66.3842 39.7627V64.4787C66.3842 65.6322 65.4286 66.5734 64.106 66.5734C62.7834 66.5734 61.8278 65.6322 61.8278 64.4787V39.7627C61.8278 38.6092 62.7834 37.6635 64.106 37.6635ZM59.5361 42.117V62.0885C53.4802 60.8321 47.4243 59.5758 41.3684 58.3198V48.0028C47.4243 46.0409 53.4805 44.0799 59.5361 42.117ZM33.7772 48.5176H38.8037C38.9588 48.5176 39.0498 48.6086 39.0498 48.7638V52.1073H33.531V48.7638C33.531 48.6087 33.6221 48.5176 33.7772 48.5176ZM33.531 54.3989H39.0498V57.7424C39.0498 57.8975 38.9588 57.9886 38.8037 57.9886H33.7772C33.6221 57.9886 33.531 57.8975 33.531 57.7424V54.3989ZM39.1707 60.2042C39.6704 60.3078 40.1705 60.4094 40.6701 60.513L44.967 73.3365H41.6817L37.0178 60.2803H38.8037C38.9334 60.2803 39.0458 60.2236 39.1707 60.2042Z" fill="#111111"/>
<defs>
<filter id="filter0_d_416_634" x="0" y="0" width="107" height="107" filterUnits="userSpaceOnUse" color-interpolation-filters="sRGB">
<feFlood flood-opacity="0" result="BackgroundImageFix"/>
<feColorMatrix in="SourceAlpha" type="matrix" values="0 0 0 0 0 0 0 0 0 0 0 0 0 0 0 0 0 0 127 0" result="hardAlpha"/>
<feOffset/>
<feGaussianBlur stdDeviation="5"/>
<feComposite in2="hardAlpha" operator="out"/>
<feColorMatrix type="matrix" values="0 0 0 0 0 0 0 0 0 0 0 0 0 0 0 0 0 0 0.15 0"/>
<feBlend mode="normal" in2="BackgroundImageFix" result="effect1_dropShadow_416_634"/>
<feBlend mode="normal" in="SourceGraphic" in2="effect1_dropShadow_416_634" result="shape"/>
</filter>
</defs>
</svg>
