<svg width="107" height="107" viewBox="0 0 107 107" fill="none" xmlns="http://www.w3.org/2000/svg">
<g filter="url(#filter0_d_416_634)">
<circle cx="53.5" cy="53.5" r="43.5" fill="#F8F8F8"/>
</g>
<mask id="path-2-inside-1_416_634" fill="white">
<path d="M35.2876 31.175C33.6729 31.175 32.3501 32.4978 32.3501 34.1125V51.7361H73.4737V34.1125C73.4737 32.4978 72.1494 31.175 70.5347 31.175H35.2876ZM51.4438 33.3954H54.3828C54.7889 33.3938 55.1192 33.7222 55.12 34.1283L55.1215 35.6344C55.2337 35.6776 55.3719 35.7382 55.4815 35.7878L56.5501 34.7236C56.8423 34.4331 57.2992 34.4388 57.5857 34.7236L59.6611 36.7947C59.9497 37.0818 59.9497 37.5489 59.6611 37.836L58.5983 38.9018C58.6469 39.0108 58.7053 39.1501 58.7475 39.2618H60.2578C60.6634 39.2634 60.9909 39.5934 60.9893 39.999V42.9308C60.9885 43.3347 60.6617 43.6621 60.2578 43.6637H58.7503C58.7081 43.7754 58.6497 43.9161 58.6012 44.0252L59.6669 45.098C59.9547 45.385 59.9502 45.8481 59.6624 46.1351L57.587 48.2062C57.3005 48.491 56.8379 48.491 56.5514 48.2062L55.4857 47.1434C55.3761 47.1931 55.2321 47.2493 55.1199 47.2926V48.7972C55.1215 49.205 54.7905 49.536 54.3827 49.5344H51.4437C51.0382 49.5328 50.7107 49.2027 50.7122 48.7972V47.2897C50.6005 47.2474 50.457 47.1892 50.3479 47.1405L49.2808 48.2062C48.9938 48.4939 48.5278 48.4939 48.2409 48.2062L46.164 46.1351C45.8764 45.8481 45.8764 45.3821 46.164 45.0952L47.2326 44.028C47.1829 43.9187 47.121 43.7758 47.0777 43.6637H45.573C45.1669 43.6653 44.8366 43.3369 44.8358 42.9308V39.999C44.8343 39.5912 45.1652 39.2602 45.573 39.2618H47.0805C47.1238 39.1505 47.1803 39.0104 47.2297 38.9018L46.164 37.8361C45.8754 37.5489 45.8754 37.0819 46.164 36.7947L48.2409 34.7236C48.5278 34.4359 48.9938 34.4359 49.2808 34.7236L50.3508 35.7878C50.4596 35.7393 50.6007 35.6795 50.7122 35.6372V34.1283C50.713 33.7244 51.04 33.397 51.4438 33.3954ZM52.1825 34.8656V36.1708C52.1811 36.5012 51.9592 36.79 51.6404 36.8765C51.2643 36.9797 50.9057 37.13 50.566 37.3211C50.2784 37.4852 49.9165 37.4364 49.6825 37.2021L48.7617 36.2798L47.7261 37.3154L48.6469 38.242C48.8812 38.476 48.93 38.8379 48.766 39.1255C48.5721 39.4636 48.4228 39.8249 48.317 40.1998C48.2262 40.5142 47.9385 40.7306 47.6113 40.7305H46.3047V42.1935H47.6113C47.9405 42.1944 48.229 42.4142 48.317 42.7314C48.4228 43.1063 48.5722 43.4662 48.766 43.8043C48.93 44.092 48.8812 44.4539 48.6469 44.6878L47.7261 45.6144L48.7617 46.65L49.6825 45.7292C49.9151 45.4929 50.2771 45.4418 50.566 45.6044C50.9057 45.7955 51.2643 45.9458 51.6404 46.049C51.9608 46.1359 52.183 46.427 52.1825 46.759V48.0657H53.6513V46.7647C53.652 46.436 53.8711 46.1477 54.1877 46.059C54.5636 45.9534 54.9216 45.8037 55.2606 45.6101C55.547 45.4446 55.9088 45.4909 56.1441 45.7234L57.0721 46.65L58.1077 45.6144L57.1855 44.6936C56.954 44.4605 56.9054 44.1021 57.0664 43.8158C57.2579 43.4761 57.4078 43.1116 57.5111 42.7357C57.5974 42.4173 57.8854 42.1956 58.2153 42.1935H59.5277V40.7305H58.2153C57.887 40.7292 57.5996 40.5102 57.5111 40.1941C57.4079 39.8183 57.2579 39.4551 57.0664 39.1155C56.9046 38.8288 56.9531 38.4695 57.1855 38.2362L58.1077 37.3154L57.0721 36.2798L56.1441 37.2021C55.9101 37.4364 55.5483 37.4852 55.2606 37.3211C54.9216 37.1275 54.5636 36.9764 54.1877 36.8707C53.8717 36.7823 53.6526 36.4947 53.6513 36.1665V34.8656L52.1825 34.8656ZM52.914 38.5303C54.5276 38.5303 55.8515 39.8543 55.8515 41.4678C55.8515 43.0813 54.5276 44.4067 52.914 44.4067C51.3004 44.4067 49.9751 43.0813 49.9751 41.4678C49.9751 39.8543 51.3004 38.5303 52.914 38.5303ZM52.914 39.999C52.0941 39.999 51.4438 40.6482 51.4438 41.4678C51.4438 42.2873 52.0941 42.9365 52.914 42.9365C53.734 42.9365 54.3828 42.2873 54.3828 41.4678C54.3828 40.6482 53.734 39.999 52.914 39.999ZM32.3501 53.2063V54.6765C32.3501 56.2912 33.6729 57.614 35.2876 57.614H70.5347C72.1494 57.614 73.4737 56.2912 73.4737 54.6765V53.2063H32.3501ZM48.383 59.0842C48.1814 61.7072 47.0224 65.4627 46.5184 67.1609H59.3054C58.8014 65.4627 57.6435 61.7072 57.4422 59.0842H48.383ZM42.6313 68.6282C42.2245 68.6282 41.897 68.9557 41.897 69.3625V71.5657C41.897 71.9725 42.2245 72.3 42.6313 72.3H63.1924C63.5993 72.3 63.9268 71.9725 63.9268 71.5657V69.3625C63.9268 68.9557 63.5993 68.6282 63.1924 68.6282H42.6313Z"/>
</mask>
<path d="M35.2876 31.175C33.6729 31.175 32.3501 32.4978 32.3501 34.1125V51.7361H73.4737V34.1125C73.4737 32.4978 72.1494 31.175 70.5347 31.175H35.2876ZM51.4438 33.3954H54.3828C54.7889 33.3938 55.1192 33.7222 55.12 34.1283L55.1215 35.6344C55.2337 35.6776 55.3719 35.7382 55.4815 35.7878L56.5501 34.7236C56.8423 34.4331 57.2992 34.4388 57.5857 34.7236L59.6611 36.7947C59.9497 37.0818 59.9497 37.5489 59.6611 37.836L58.5983 38.9018C58.6469 39.0108 58.7053 39.1501 58.7475 39.2618H60.2578C60.6634 39.2634 60.9909 39.5934 60.9893 39.999V42.9308C60.9885 43.3347 60.6617 43.6621 60.2578 43.6637H58.7503C58.7081 43.7754 58.6497 43.9161 58.6012 44.0252L59.6669 45.098C59.9547 45.385 59.9502 45.8481 59.6624 46.1351L57.587 48.2062C57.3005 48.491 56.8379 48.491 56.5514 48.2062L55.4857 47.1434C55.3761 47.1931 55.2321 47.2493 55.1199 47.2926V48.7972C55.1215 49.205 54.7905 49.536 54.3827 49.5344H51.4437C51.0382 49.5328 50.7107 49.2027 50.7122 48.7972V47.2897C50.6005 47.2474 50.457 47.1892 50.3479 47.1405L49.2808 48.2062C48.9938 48.4939 48.5278 48.4939 48.2409 48.2062L46.164 46.1351C45.8764 45.8481 45.8764 45.3821 46.164 45.0952L47.2326 44.028C47.1829 43.9187 47.121 43.7758 47.0777 43.6637H45.573C45.1669 43.6653 44.8366 43.3369 44.8358 42.9308V39.999C44.8343 39.5912 45.1652 39.2602 45.573 39.2618H47.0805C47.1238 39.1505 47.1803 39.0104 47.2297 38.9018L46.164 37.8361C45.8754 37.5489 45.8754 37.0819 46.164 36.7947L48.2409 34.7236C48.5278 34.4359 48.9938 34.4359 49.2808 34.7236L50.3508 35.7878C50.4596 35.7393 50.6007 35.6795 50.7122 35.6372V34.1283C50.713 33.7244 51.04 33.397 51.4438 33.3954ZM52.1825 34.8656V36.1708C52.1811 36.5012 51.9592 36.79 51.6404 36.8765C51.2643 36.9797 50.9057 37.13 50.566 37.3211C50.2784 37.4852 49.9165 37.4364 49.6825 37.2021L48.7617 36.2798L47.7261 37.3154L48.6469 38.242C48.8812 38.476 48.93 38.8379 48.766 39.1255C48.5721 39.4636 48.4228 39.8249 48.317 40.1998C48.2262 40.5142 47.9385 40.7306 47.6113 40.7305H46.3047V42.1935H47.6113C47.9405 42.1944 48.229 42.4142 48.317 42.7314C48.4228 43.1063 48.5722 43.4662 48.766 43.8043C48.93 44.092 48.8812 44.4539 48.6469 44.6878L47.7261 45.6144L48.7617 46.65L49.6825 45.7292C49.9151 45.4929 50.2771 45.4418 50.566 45.6044C50.9057 45.7955 51.2643 45.9458 51.6404 46.049C51.9608 46.1359 52.183 46.427 52.1825 46.759V48.0657H53.6513V46.7647C53.652 46.436 53.8711 46.1477 54.1877 46.059C54.5636 45.9534 54.9216 45.8037 55.2606 45.6101C55.547 45.4446 55.9088 45.4909 56.1441 45.7234L57.0721 46.65L58.1077 45.6144L57.1855 44.6936C56.954 44.4605 56.9054 44.1021 57.0664 43.8158C57.2579 43.4761 57.4078 43.1116 57.5111 42.7357C57.5974 42.4173 57.8854 42.1956 58.2153 42.1935H59.5277V40.7305H58.2153C57.887 40.7292 57.5996 40.5102 57.5111 40.1941C57.4079 39.8183 57.2579 39.4551 57.0664 39.1155C56.9046 38.8288 56.9531 38.4695 57.1855 38.2362L58.1077 37.3154L57.0721 36.2798L56.1441 37.2021C55.9101 37.4364 55.5483 37.4852 55.2606 37.3211C54.9216 37.1275 54.5636 36.9764 54.1877 36.8707C53.8717 36.7823 53.6526 36.4947 53.6513 36.1665V34.8656L52.1825 34.8656ZM52.914 38.5303C54.5276 38.5303 55.8515 39.8543 55.8515 41.4678C55.8515 43.0813 54.5276 44.4067 52.914 44.4067C51.3004 44.4067 49.9751 43.0813 49.9751 41.4678C49.9751 39.8543 51.3004 38.5303 52.914 38.5303ZM52.914 39.999C52.0941 39.999 51.4438 40.6482 51.4438 41.4678C51.4438 42.2873 52.0941 42.9365 52.914 42.9365C53.734 42.9365 54.3828 42.2873 54.3828 41.4678C54.3828 40.6482 53.734 39.999 52.914 39.999ZM32.3501 53.2063V54.6765C32.3501 56.2912 33.6729 57.614 35.2876 57.614H70.5347C72.1494 57.614 73.4737 56.2912 73.4737 54.6765V53.2063H32.3501ZM48.383 59.0842C48.1814 61.7072 47.0224 65.4627 46.5184 67.1609H59.3054C58.8014 65.4627 57.6435 61.7072 57.4422 59.0842H48.383ZM42.6313 68.6282C42.2245 68.6282 41.897 68.9557 41.897 69.3625V71.5657C41.897 71.9725 42.2245 72.3 42.6313 72.3H63.1924C63.5993 72.3 63.9268 71.9725 63.9268 71.5657V69.3625C63.9268 68.9557 63.5993 68.6282 63.1924 68.6282H42.6313Z" stroke="#111111" stroke-width="1.6" mask="url(#path-2-inside-1_416_634)"/>
<defs>
<filter id="filter0_d_416_634" x="0" y="0" width="107" height="107" filterUnits="userSpaceOnUse" color-interpolation-filters="sRGB">
<feFlood flood-opacity="0" result="BackgroundImageFix"/>
<feColorMatrix in="SourceAlpha" type="matrix" values="0 0 0 0 0 0 0 0 0 0 0 0 0 0 0 0 0 0 127 0" result="hardAlpha"/>
<feOffset/>
<feGaussianBlur stdDeviation="5"/>
<feComposite in2="hardAlpha" operator="out"/>
<feColorMatrix type="matrix" values="0 0 0 0 0 0 0 0 0 0 0 0 0 0 0 0 0 0 0.15 0"/>
<feBlend mode="normal" in2="BackgroundImageFix" result="effect1_dropShadow_416_634"/>
<feBlend mode="normal" in="SourceGraphic" in2="effect1_dropShadow_416_634" result="shape"/>
</filter>
</defs>
</svg>
