<svg width="80" height="80" viewBox="0 0 80 80" fill="none" xmlns="http://www.w3.org/2000/svg">
<circle cx="40" cy="40" r="40" fill="white"/>
<g clip-path="url(#clip0_416_634)">
<path d="M24.842 30.276C25.247 30.276 25.5753 29.9477 25.5753 29.5427C25.5753 29.1377 25.247 28.8093 24.842 28.8093C24.437 28.8093 24.1086 29.1377 24.1086 29.5427C24.1086 29.9477 24.437 30.276 24.842 30.276Z" fill="#111111"/>
<path d="M29.7333 30.276C30.1383 30.276 30.4667 29.9477 30.4667 29.5427C30.4667 29.1377 30.1383 28.8093 29.7333 28.8093C29.3283 28.8093 29 29.1377 29 29.5427C29 29.9477 29.3283 30.276 29.7333 30.276Z" fill="#111111"/>
<path d="M27.2913 30.276C27.6963 30.276 28.0247 29.9477 28.0247 29.5427C28.0247 29.1377 27.6963 28.8093 27.2913 28.8093C26.8863 28.8093 26.558 29.1377 26.558 29.5427C26.558 29.9477 26.8863 30.276 27.2913 30.276Z" fill="#111111"/>
<path d="M32.6666 40.1833L34.8666 37.9833C35.0047 37.8452 35.0823 37.6579 35.0823 37.4627C35.0823 37.2674 35.0047 37.0801 34.8666 36.942C34.7285 36.8039 34.5412 36.7263 34.3459 36.7263C34.1507 36.7263 33.9634 36.8039 33.8253 36.942L31.0973 39.6773C30.9607 39.8147 30.884 40.0006 30.884 40.1943C30.884 40.3881 30.9607 40.5739 31.0973 40.7113L33.8253 43.4467C33.8935 43.5154 33.9746 43.5699 34.0639 43.6072C34.1533 43.6444 34.2491 43.6636 34.3459 43.6636C34.4428 43.6636 34.5386 43.6444 34.628 43.6072C34.7173 43.5699 34.7984 43.5154 34.8666 43.4467C35.0032 43.3093 35.0799 43.1234 35.0799 42.9297C35.0799 42.7359 35.0032 42.5501 34.8666 42.4127L32.6666 40.1833Z" fill="#111111"/>
<path d="M43.168 43.4321C43.3054 43.5686 43.4913 43.6453 43.685 43.6453C43.8788 43.6453 44.0646 43.5686 44.202 43.4321L46.9374 40.7334C47.074 40.596 47.1506 40.4101 47.1506 40.2164C47.1506 40.0227 47.074 39.8368 46.9374 39.6994L44.202 36.9641C44.0639 36.8269 43.877 36.7503 43.6824 36.751C43.4878 36.7517 43.3015 36.8296 43.1644 36.9677C43.0273 37.1058 42.9506 37.2927 42.9513 37.4873C42.952 37.6819 43.0299 37.8683 43.168 38.0054L45.368 40.2054L43.168 42.4054C43.0337 42.5425 42.9584 42.7268 42.9584 42.9187C42.9584 43.1107 43.0337 43.295 43.168 43.4321Z" fill="#111111"/>
<path d="M40.7333 37.1767C40.6496 37.1282 40.5572 37.0967 40.4613 37.0841C40.3654 37.0715 40.2679 37.078 40.1745 37.1032C40.0811 37.1285 39.9937 37.1719 39.9172 37.2311C39.8406 37.2902 39.7766 37.364 39.7287 37.448L37.0227 42.2C36.9696 42.2835 36.934 42.3768 36.9179 42.4744C36.9019 42.572 36.9057 42.6718 36.9293 42.7679C36.9528 42.8639 36.9955 42.9543 37.0548 43.0334C37.1142 43.1125 37.1889 43.1788 37.2745 43.2283C37.3602 43.2778 37.4549 43.3095 37.5531 43.3214C37.6513 43.3333 37.7509 43.3253 37.8459 43.2977C37.9408 43.2702 38.0293 43.2237 38.1058 43.1611C38.1824 43.0984 38.2455 43.021 38.2913 42.9333L41.0267 38.2033C41.0778 38.1174 41.1109 38.0219 41.1238 37.9228C41.1367 37.8236 41.1292 37.7228 41.1017 37.6267C41.0742 37.5305 41.0274 37.441 40.964 37.3636C40.9007 37.2862 40.8222 37.2226 40.7333 37.1767Z" fill="#111111"/>
<path d="M58.964 47.3334C58.9207 47.333 58.8786 47.3195 58.8432 47.2946C58.8078 47.2697 58.7809 47.2346 58.766 47.194C58.4742 46.4264 58.0606 45.7108 57.5413 45.0747C57.5167 45.0392 57.5035 44.9969 57.5035 44.9537C57.5035 44.9105 57.5167 44.8683 57.5413 44.8327C57.7646 44.4456 57.8252 43.9857 57.7097 43.5539C57.5942 43.1222 57.3121 42.7539 56.9253 42.53L56.3753 42.2V28.8094C56.3753 28.2259 56.1435 27.6663 55.7309 27.2537C55.3183 26.8412 54.7588 26.6094 54.1753 26.6094H23.8666C23.2831 26.6094 22.7236 26.8412 22.311 27.2537C21.8984 27.6663 21.6666 28.2259 21.6666 28.8094V47.392C21.6686 47.8446 21.8492 48.2781 22.1692 48.5981C22.4892 48.9181 22.9227 49.0988 23.3753 49.1007H33.4L32.6666 51.814H31.6913C30.977 51.8145 30.2838 52.0558 29.7236 52.4989C29.1634 52.942 28.7689 53.5611 28.604 54.256H26.8C26.6055 54.256 26.4189 54.3333 26.2814 54.4708C26.1439 54.6084 26.0666 54.7949 26.0666 54.9894C26.0666 55.1839 26.1439 55.3704 26.2814 55.5079C26.4189 55.6454 26.6055 55.7227 26.8 55.7227H45.478C45.4655 55.8979 45.4829 56.074 45.5293 56.2434C45.5843 56.4585 45.6821 56.6603 45.8169 56.8367C45.9518 57.0131 46.1208 57.1605 46.314 57.27L47.8613 58.1647C48.0534 58.275 48.2654 58.3464 48.4851 58.3747C48.7048 58.4031 48.9279 58.3879 49.1417 58.33C49.3556 58.2721 49.5559 58.1727 49.7313 58.0374C49.9067 57.9021 50.0537 57.7335 50.164 57.5414C50.1877 57.504 50.2219 57.4743 50.2623 57.4561C50.3027 57.4378 50.3475 57.4318 50.3913 57.4387C51.1969 57.578 52.0204 57.578 52.826 57.4387C52.8706 57.4315 52.9163 57.4382 52.957 57.4578C52.9977 57.4775 53.0313 57.5092 53.0533 57.5487C53.2028 57.8046 53.417 58.0166 53.6745 58.1634C53.932 58.3102 54.2236 58.3865 54.52 58.3847C54.8156 58.3876 55.1067 58.3116 55.3633 58.1647L56.9106 57.27C57.1027 57.1592 57.271 57.0114 57.4057 56.8352C57.5403 56.659 57.6388 56.4578 57.6953 56.2434C57.7537 56.0302 57.7689 55.8075 57.7399 55.5883C57.7109 55.3692 57.6384 55.1581 57.5266 54.9674C57.5014 54.9307 57.4879 54.8872 57.4879 54.8427C57.4879 54.7982 57.5014 54.7547 57.5266 54.718C58.0444 54.0835 58.4578 53.3706 58.7513 52.606C58.7653 52.5648 58.792 52.5291 58.8276 52.5041C58.8632 52.479 58.9058 52.466 58.9493 52.4667C59.396 52.4648 59.8239 52.2865 60.1398 51.9706C60.4557 51.6547 60.634 51.2268 60.636 50.78V48.9907C60.6283 48.551 60.4493 48.1317 60.1369 47.8221C59.8246 47.5125 59.4037 47.3371 58.964 47.3334ZM23.1333 28.8094C23.1333 28.6149 23.2106 28.4284 23.3481 28.2908C23.4856 28.1533 23.6721 28.076 23.8666 28.076H54.1753C54.3698 28.076 54.5563 28.1533 54.6938 28.2908C54.8314 28.4284 54.9086 28.6149 54.9086 28.8094V31.0094H23.1333V28.8094ZM23.3753 47.634C23.3435 47.634 23.312 47.6278 23.2827 47.6156C23.2533 47.6035 23.2266 47.5856 23.2042 47.5632C23.1817 47.5407 23.1639 47.514 23.1517 47.4847C23.1396 47.4553 23.1333 47.4238 23.1333 47.392V32.476H54.9086V41.4667C54.5616 41.3745 54.1942 41.396 53.8603 41.528C53.5263 41.66 53.2435 41.8955 53.0533 42.2C53.0305 42.2362 52.9973 42.2647 52.958 42.2817C52.9188 42.2987 52.8753 42.3035 52.8333 42.2954C52.0271 42.1633 51.2048 42.1633 50.3986 42.2954C50.3566 42.3045 50.3127 42.3003 50.2733 42.2832C50.2338 42.266 50.2007 42.237 50.1786 42.2C50.0685 42.0078 49.9214 41.8392 49.7458 41.7041C49.5702 41.569 49.3696 41.4699 49.1555 41.4127C48.9415 41.3554 48.7182 41.3411 48.4986 41.3705C48.279 41.3999 48.0674 41.4725 47.876 41.584L46.3286 42.4787C46.136 42.5871 45.9672 42.7332 45.8324 42.9084C45.6975 43.0835 45.5994 43.2841 45.544 43.498C45.4267 43.9304 45.4847 44.3915 45.7053 44.7814C45.732 44.816 45.7466 44.8586 45.7466 44.9024C45.7466 44.9462 45.732 44.9887 45.7053 45.0234C45.1859 45.6595 44.7724 46.3751 44.4806 47.1427C44.4657 47.1833 44.4388 47.2184 44.4034 47.2433C44.368 47.2682 44.3259 47.2817 44.2826 47.282C43.9234 47.2826 43.5739 47.3982 43.2853 47.612L23.3753 47.634ZM42.9333 51.814H34.1333L34.8666 49.1007H42.5666V50.78C42.5713 51.1557 42.7002 51.5193 42.9333 51.814ZM31.6986 53.2807H44.752C44.9196 53.6188 45.1107 53.9447 45.324 54.256H30.1513C30.2897 53.9647 30.5078 53.7185 30.7804 53.5459C31.0529 53.3733 31.3687 53.2813 31.6913 53.2807H31.6986ZM59.184 50.78C59.184 50.8384 59.1608 50.8943 59.1195 50.9356C59.0783 50.9769 59.0223 51 58.964 51C58.6224 51.0009 58.289 51.105 58.0076 51.2987C57.7263 51.4924 57.51 51.7666 57.3873 52.0854C57.1529 52.7037 56.8211 53.2805 56.4046 53.794C56.1898 54.0593 56.0602 54.3833 56.0327 54.7236C56.0053 55.0638 56.0812 55.4044 56.2506 55.7007C56.2624 55.726 56.2685 55.7535 56.2685 55.7814C56.2685 55.8092 56.2624 55.8368 56.2506 55.862C56.2442 55.8912 56.2318 55.9186 56.2141 55.9426C56.1964 55.9666 56.1739 55.9866 56.148 56.0014L54.6226 56.8667C54.5971 56.8809 54.5691 56.8898 54.5401 56.8931C54.5112 56.8963 54.4819 56.8938 54.4539 56.8856C54.4259 56.8774 54.3998 56.8637 54.3772 56.8454C54.3545 56.827 54.3358 56.8044 54.322 56.7787C54.1486 56.4832 53.8896 56.2472 53.5793 56.1018C53.2691 55.9565 52.922 55.9087 52.584 55.9647C51.9384 56.0747 51.2789 56.0747 50.6333 55.9647C50.2945 55.9094 49.9469 55.9583 49.6365 56.105C49.3261 56.2516 49.0676 56.4892 48.8953 56.786C48.8648 56.8352 48.8168 56.8709 48.7609 56.8859C48.7051 56.9009 48.6456 56.894 48.5946 56.8667L47.0473 55.972C47.0214 55.9573 46.9988 55.9373 46.9811 55.9133C46.9635 55.8893 46.951 55.8618 46.9446 55.8327C46.9328 55.8074 46.9267 55.7799 46.9267 55.752C46.9267 55.7242 46.9328 55.6966 46.9446 55.6714C47.1121 55.3745 47.1869 55.0342 47.1594 54.6945C47.132 54.3547 47.0036 54.0309 46.7906 53.7647C46.3704 53.2525 46.036 52.6754 45.8006 52.056C45.6776 51.7456 45.4645 51.4792 45.1887 51.291C44.913 51.1028 44.5872 51.0015 44.2533 51C44.1949 51 44.139 50.9769 44.0977 50.9356C44.0565 50.8943 44.0333 50.8384 44.0333 50.78V48.9907C44.0323 48.9615 44.0373 48.9325 44.048 48.9053C44.0586 48.8782 44.0748 48.8535 44.0954 48.8329C44.1161 48.8122 44.1407 48.7961 44.1679 48.7854C44.1951 48.7747 44.2241 48.7697 44.2533 48.7707C44.5939 48.7694 44.9261 48.665 45.2062 48.4713C45.4863 48.2776 45.7012 48.0036 45.8226 47.6854C46.0563 47.0652 46.3908 46.4879 46.8126 45.9767C47.0256 45.7105 47.154 45.3867 47.1814 45.0469C47.2089 44.7072 47.1341 44.367 46.9666 44.07C46.9547 44.0435 46.9485 44.0148 46.9485 43.9857C46.9485 43.9566 46.9547 43.9279 46.9666 43.9014C46.9726 43.873 46.9849 43.8464 47.0027 43.8235C47.0205 43.8006 47.0433 43.7821 47.0693 43.7694L48.6166 42.8747C48.6526 42.8647 48.6906 42.8647 48.7266 42.8747C48.7633 42.8752 48.7993 42.8848 48.8313 42.9027C48.8634 42.9207 48.8904 42.9463 48.91 42.9774C49.0831 43.2735 49.3417 43.5105 49.6518 43.657C49.962 43.8036 50.3092 43.853 50.648 43.7987C51.2935 43.6887 51.9531 43.6887 52.5986 43.7987C52.9396 43.8448 53.2865 43.7868 53.594 43.6324C53.9015 43.478 54.1552 43.2344 54.322 42.9334C54.3363 42.9092 54.3553 42.8881 54.3778 42.8713C54.4004 42.8545 54.426 42.8423 54.4533 42.8355C54.4806 42.8287 54.509 42.8273 54.5368 42.8315C54.5646 42.8358 54.5913 42.8454 54.6153 42.86L56.1626 43.7547C56.1886 43.7675 56.2114 43.786 56.2292 43.8089C56.247 43.8317 56.2593 43.8583 56.2653 43.8867C56.2772 43.9132 56.2834 43.942 56.2834 43.971C56.2834 44.0001 56.2772 44.0289 56.2653 44.0554C56.0965 44.3506 56.0209 44.6899 56.0484 45.0289C56.0759 45.3678 56.2051 45.6905 56.4193 45.9547C56.836 46.4708 57.1677 47.0501 57.402 47.6707C57.5176 47.9948 57.7287 48.2763 58.0076 48.4779C58.2865 48.6795 58.6199 48.7919 58.964 48.8C58.9931 48.799 59.0222 48.804 59.0493 48.8147C59.0765 48.8254 59.1012 48.8416 59.1218 48.8622C59.1424 48.8828 59.1586 48.9075 59.1693 48.9347C59.18 48.9618 59.185 48.9909 59.184 49.02V50.78Z" fill="#111111"/>
<path d="M51.6086 46.556C50.9502 46.556 50.3065 46.7513 49.759 47.1171C49.2114 47.483 48.7847 48.0029 48.5327 48.6113C48.2807 49.2196 48.2148 49.8891 48.3433 50.5349C48.4717 51.1807 48.7888 51.7739 49.2544 52.2396C49.7201 52.7052 50.3133 53.0223 50.9591 53.1507C51.6049 53.2792 52.2744 53.2133 52.8827 52.9613C53.4911 52.7093 54.011 52.2825 54.3769 51.735C54.7427 51.1875 54.938 50.5438 54.938 49.8854C54.938 49.0024 54.5872 48.1555 53.9628 47.5312C53.3385 46.9068 52.4916 46.556 51.6086 46.556ZM51.6086 51.748C51.2402 51.748 50.8801 51.6388 50.5738 51.4341C50.2675 51.2294 50.0287 50.9385 49.8878 50.5982C49.7468 50.2578 49.7099 49.8833 49.7818 49.522C49.8536 49.1607 50.031 48.8288 50.2915 48.5683C50.552 48.3078 50.8839 48.1304 51.2452 48.0585C51.6066 47.9866 51.9811 48.0235 52.3214 48.1645C52.6618 48.3055 52.9527 48.5442 53.1574 48.8505C53.3621 49.1568 53.4713 49.517 53.4713 49.8854C53.4674 50.3768 53.2695 50.8468 52.9206 51.193C52.5717 51.5392 52.1001 51.7334 51.6086 51.7334V51.748Z" fill="#111111"/>
</g>
<defs>
<clipPath id="clip0_416_634">
<rect width="44" height="44" fill="white" transform="translate(18 18)"/>
</clipPath>
</defs>
</svg>
