<svg width="100" height="100" viewBox="0 0 100 100" fill="none" xmlns="http://www.w3.org/2000/svg">
<g filter="url(#filter0_d_416_634)">
<circle cx="50" cy="50" r="40" fill="#F8F8F8"/>
</g>
<path d="M30.0156 55.875C29.6447 55.875 29.3438 55.574 29.3438 55.2031V33.7031C29.3438 32.5918 30.2481 31.6875 31.3594 31.6875H67.6406C68.7519 31.6875 69.6562 32.5918 69.6562 33.7031V35.7187C69.6562 36.0896 69.3553 36.3906 68.9844 36.3906C68.6135 36.3906 68.3125 36.0896 68.3125 35.7187V33.7031C68.3125 33.3336 68.0102 33.0312 67.6406 33.0312H31.3594C30.9898 33.0312 30.6875 33.3336 30.6875 33.7031V55.2031C30.6875 55.574 30.3865 55.875 30.0156 55.875Z" fill="#111111"/>
<path d="M49.5 70.6562H42.1094C41.7385 70.6562 41.4375 70.3552 41.4375 69.9844C41.4375 69.6135 41.7385 69.3125 42.1094 69.3125H43.4531C44.5644 69.3125 45.4688 68.4082 45.4688 67.2969V63.9375C45.4688 63.5666 45.7698 63.2656 46.1406 63.2656C46.5115 63.2656 46.8125 63.5666 46.8125 63.9375V67.2969C46.8125 68.0534 46.5612 68.7508 46.1393 69.3125H49.5C49.8709 69.3125 50.1719 69.6135 50.1719 69.9844C50.1719 70.3552 49.8709 70.6562 49.5 70.6562Z" fill="#111111"/>
<path d="M48.8281 63.9375H31.3594C30.2481 63.9375 29.3438 63.0332 29.3438 61.9219V57.8906C29.3438 57.5197 29.6447 57.2188 30.0156 57.2188H48.8281C49.199 57.2188 49.5 57.5197 49.5 57.8906C49.5 58.2615 49.199 58.5625 48.8281 58.5625H30.6875V61.9219C30.6875 62.2914 30.9898 62.5938 31.3594 62.5938H48.8281C49.199 62.5938 49.5 62.8948 49.5 63.2656C49.5 63.6365 49.199 63.9375 48.8281 63.9375Z" fill="#111111"/>
<path d="M56.8906 41.0938H63.6094C63.9802 41.0938 64.2812 40.7928 64.2812 40.4219C64.2812 40.051 63.9802 39.75 63.6094 39.75H56.8906C56.5197 39.75 56.2188 40.051 56.2188 40.4219C56.2188 40.7928 56.5197 41.0938 56.8906 41.0938Z" fill="#111111"/>
<path d="M59.5781 67.9688H60.9219C61.2927 67.9688 61.5938 67.6678 61.5938 67.2969C61.5938 66.926 61.2927 66.625 60.9219 66.625H59.5781C59.2072 66.625 58.9062 66.926 58.9062 67.2969C58.9062 67.6678 59.2072 67.9688 59.5781 67.9688Z" fill="#111111"/>
<path d="M66.2969 70.6562H54.2031C52.3501 70.6562 50.8438 69.1499 50.8438 67.2969V40.4219C50.8438 38.5688 52.3501 37.0625 54.2031 37.0625H66.2969C68.1499 37.0625 69.6562 38.5688 69.6562 40.4219V67.2969C69.6562 69.1499 68.1499 70.6562 66.2969 70.6562ZM54.2031 38.4062C53.0918 38.4062 52.1875 39.3106 52.1875 40.4219V67.2969C52.1875 68.4082 53.0918 69.3125 54.2031 69.3125H66.2969C67.4082 69.3125 68.3125 68.4082 68.3125 67.2969V40.4219C68.3125 39.3106 67.4082 38.4062 66.2969 38.4062H54.2031Z" fill="#111111"/>
<defs>
<filter id="filter0_d_416_634" x="0" y="0" width="100" height="100" filterUnits="userSpaceOnUse" color-interpolation-filters="sRGB">
<feFlood flood-opacity="0" result="BackgroundImageFix"/>
<feColorMatrix in="SourceAlpha" type="matrix" values="0 0 0 0 0 0 0 0 0 0 0 0 0 0 0 0 0 0 127 0" result="hardAlpha"/>
<feOffset/>
<feGaussianBlur stdDeviation="5"/>
<feComposite in2="hardAlpha" operator="out"/>
<feColorMatrix type="matrix" values="0 0 0 0 0 0 0 0 0 0 0 0 0 0 0 0 0 0 0.15 0"/>
<feBlend mode="normal" in2="BackgroundImageFix" result="effect1_dropShadow_416_634"/>
<feBlend mode="normal" in="SourceGraphic" in2="effect1_dropShadow_416_634" result="shape"/>
</filter>
</defs>
</svg>
